<?xml version="1.0" encoding="UTF-8" standalone="no"?>
<svg
   xmlns:dc="http://purl.org/dc/elements/1.1/"
   xmlns:cc="http://creativecommons.org/ns#"
   xmlns:rdf="http://www.w3.org/1999/02/22-rdf-syntax-ns#"
   xmlns:svg="http://www.w3.org/2000/svg"
   xmlns="http://www.w3.org/2000/svg"
   xmlns:sodipodi="http://sodipodi.sourceforge.net/DTD/sodipodi-0.dtd"
   xmlns:inkscape="http://www.inkscape.org/namespaces/inkscape"
   width="25"
   height="25"
   version="1.1"
   viewBox="0 0 6.6146 6.6146"
   id="svg8"
   sodipodi:docname="clone.svg"
   inkscape:version="0.92.2 2405546, 2018-03-11">
  <metadata
     id="metadata14">
    <rdf:RDF>
      <cc:Work
         rdf:about="">
        <dc:format>image/svg+xml</dc:format>
        <dc:type
           rdf:resource="http://purl.org/dc/dcmitype/StillImage" />
      </cc:Work>
    </rdf:RDF>
  </metadata>
  <defs
     id="defs12" />
  <sodipodi:namedview
     pagecolor="#ffffff"
     bordercolor="#666666"
     borderopacity="1"
     objecttolerance="10"
     gridtolerance="10"
     guidetolerance="10"
     inkscape:pageopacity="0"
     inkscape:pageshadow="2"
     inkscape:window-width="1920"
     inkscape:window-height="1171"
     id="namedview10"
     showgrid="true"
     inkscape:snap-bbox="true"
     inkscape:bbox-nodes="true"
     inkscape:snap-nodes="false"
     inkscape:zoom="26.700352"
     inkscape:cx="10.107814"
     inkscape:cy="12.885693"
     inkscape:window-x="0"
     inkscape:window-y="29"
     inkscape:window-maximized="0"
     inkscape:current-layer="svg8">
    <inkscape:grid
       type="xygrid"
       id="grid899" />
  </sodipodi:namedview>
  <g
     id="g826"
     transform="translate(-1.3227773)">
    <path
       style="fill:#aeffff;stroke-width:1"
       inkscape:connector-curvature="0"
       id="path2"
       d="M 3.0955459,1.6189031 V 1.7657164 H 3.180224 V 2.206162 A 0.50806813,0.29363227 0 0 0 2.6721558,2.4997943 V 2.7934266 H 3.9423262 V 2.4997943 A 0.50806813,0.29363227 0 0 0 3.434258,2.206162 V 1.7657164 H 3.518936 V 1.6189031 Z" />
    <path
       style="fill:#008000;stroke-width:1"
       inkscape:connector-curvature="0"
       id="path4"
       d="m 2.6721558,2.7933988 v 1.908607 A 0.16935604,0.29363227 0 0 0 2.8415118,4.995638 H 3.7729481 A 0.16935604,0.29363227 0 0 0 3.9423042,4.7020058 v -1.908607 z" />
    <path
       style="fill:none;stroke:#000000;stroke-width:0.05291701"
       inkscape:connector-curvature="0"
       id="path6"
       d="M 3.0955459,1.6189031 V 1.7657164 H 3.180224 V 2.206162 A 0.50806813,0.29363227 0 0 0 2.6721558,2.4997943 v 2.2022004 a 0.16935604,0.29363227 0 0 0 0.169356,0.2936322 H 3.7729481 A 0.16935604,0.29363227 0 0 0 3.9423042,4.7019947 V 2.4997943 A 0.50806813,0.29363227 0 0 0 3.4342361,2.206162 V 1.7657164 h 0.084678 V 1.6189031 Z" />
  </g>
  <g
     id="g897"
     transform="translate(0.03972888,0.03972888)">
    <circle
       id="circle883"
       r="3.0163"
       cy="3.3073001"
       cx="-3.3073001"
       transform="rotate(-90)"
       style="fill:none;stroke:#000046;stroke-width:0.13229001" />
  </g>
  <g
     transform="translate(1.3229173)"
     id="g834">
    <path
       d="M 3.0955459,1.6189031 V 1.7657164 H 3.180224 V 2.206162 A 0.50806813,0.29363227 0 0 0 2.6721558,2.4997943 V 2.7934266 H 3.9423262 V 2.4997943 A 0.50806813,0.29363227 0 0 0 3.434258,2.206162 V 1.7657164 H 3.518936 V 1.6189031 Z"
       id="path828"
       inkscape:connector-curvature="0"
       style="fill:#aeffff;stroke-width:1" />
    <path
       d="m 2.6721558,2.7933988 v 1.908607 A 0.16935604,0.29363227 0 0 0 2.8415118,4.995638 H 3.7729481 A 0.16935604,0.29363227 0 0 0 3.9423042,4.7020058 v -1.908607 z"
       id="path830"
       inkscape:connector-curvature="0"
       style="fill:#008000;stroke-width:1" />
    <path
       d="M 3.0955459,1.6189031 V 1.7657164 H 3.180224 V 2.206162 A 0.50806813,0.29363227 0 0 0 2.6721558,2.4997943 v 2.2022004 a 0.16935604,0.29363227 0 0 0 0.169356,0.2936322 H 3.7729481 A 0.16935604,0.29363227 0 0 0 3.9423042,4.7019947 V 2.4997943 A 0.50806813,0.29363227 0 0 0 3.4342361,2.206162 V 1.7657164 h 0.084678 V 1.6189031 Z"
       id="path832"
       inkscape:connector-curvature="0"
       style="fill:none;stroke:#000000;stroke-width:0.05291701" />
  </g>
  <g
     id="g903"
     transform="matrix(0.59777857,0,0,0.58597764,6.9071716,3.433547)"
     style="stroke-width:1.68962097">
    <path
       id="path889"
       d="m -7.7661083,0.40651287 h 3.175 v 0.26458 l 0.52917,-0.52917 -0.52917,-0.52917 v 0.26458 h -3.175 z"
       inkscape:connector-curvature="0"
       style="fill:#ffff00;fill-rule:evenodd;stroke:#000000;stroke-width:0.04470399" />
  </g>
</svg>
