<?xml version="1.0" encoding="UTF-8"?>
<svg width="25" height="25" version="1.1" viewBox="0 0 6.6146 6.6146" xmlns="http://www.w3.org/2000/svg">
 <g fill-rule="evenodd">
  <path d="m3.684 4.3842 1.5445 0.84406-0.82934-1.5366-0.1318 0.27033-0.30176 0.30158z" fill="#deaa87"/>
  <path d="m1.3518 2.0549 2.3321 2.3294 0.28165-0.12062 0.30174-0.30157 0.1318-0.27033-2.3433-2.3405-0.12066 0.28153-0.30172 0.30156-0.28163 0.12061" fill="#ff0"/>
  <path d="m1.4725 1.7734-0.12064 0.28148 0.28163-0.12061 0.30172-0.30156 0.1199-0.28077-0.28087 0.11988z" fill="#ffb380"/>
 </g>
 <g transform="matrix(-.076028 -.075986 .076028 -.075986 3.9669 5.6737)" stroke="#000" stroke-width=".4923">
  <g fill="none">
   <path d="m1.3229 13.229-0.52917-1.3229v-1.3229l0.52917-1.3229"/>
   <path d="m10.199 15.885-0.91205-2.6458v-3.9688l1.0583-2.6458"/>
   <path d="m41.011 15.865-1.0583-2.636v-3.9688l1.0583-2.6458"/>
  </g>
  <path d="m-5.3662 11.228 6.6892 2.0014-0.52917-1.3229v-1.3229l0.52917-1.3229z" fill-rule="evenodd"/>
  <g fill="none">
   <path d="m41.011 15.875-30.812 0.009826-15.565-4.657 6.6892-1.9674 9.0223-2.636 30.665-0.0098264"/>
   <path d="m39.952 9.2604-30.665 0.0098264-8.4931 1.3131"/>
   <path d="m39.952 13.229-30.665 0.009826-8.4931-1.3327"/>
   <path d="m41.011 15.865 1.0583-2.636v-3.9688l-1.0583-2.6458"/>
  </g>
  <ellipse cx="41.016" cy="11.212" rx=".48096" ry="2.61"/>
 </g>
 <g transform="translate(.039729 .039729)">
  <circle cx="3.3073" cy="3.3073" r="3.0163" fill="none" stroke="#000046" stroke-width=".13229"/>
 </g>
</svg>
