<?xml version="1.0" encoding="UTF-8"?>
<svg width="25" height="25" version="1.1" viewBox="0 0 6.6146 6.6146" xmlns="http://www.w3.org/2000/svg">
 <path d="m2.9214 0.26458v0.26458h0.15434v0.79375a0.92604 0.52917 0 0 0-0.92604 0.52917v0.52917h2.3151v-0.52917a0.92604 0.52917 0 0 0-0.92604-0.52917v-0.79375h0.15434v-0.26458z" fill="#aeffff"/>
 <path d="m2.1497 2.3812v3.4396a0.30868 0.52917 0 0 0 0.30868 0.52917h1.6977a0.30868 0.52917 0 0 0 0.30868-0.52917v-3.4396z" fill="#008000"/>
 <path d="m2.9214 0.26458v0.26458h0.15434v0.79375a0.92604 0.52917 0 0 0-0.92604 0.52917v3.9687a0.30868 0.52917 0 0 0 0.30868 0.52917h1.6977a0.30868 0.52917 0 0 0 0.30868-0.52917v-3.9687a0.92604 0.52917 0 0 0-0.92604-0.52917v-0.79375h0.15434v-0.26458z" fill="none" stroke="#000" stroke-width=".052917"/>
 <path d="m1.5875 4.2333h3.175v0.26458l0.52917-0.52917-0.52917-0.52917v0.26458h-3.175z" fill="#ff0" fill-rule="evenodd" stroke="#000" stroke-width=".026458"/>
</svg>
