<?xml version="1.0" encoding="UTF-8" standalone="no"?>
<svg
   xmlns:dc="http://purl.org/dc/elements/1.1/"
   xmlns:cc="http://creativecommons.org/ns#"
   xmlns:rdf="http://www.w3.org/1999/02/22-rdf-syntax-ns#"
   xmlns:svg="http://www.w3.org/2000/svg"
   xmlns="http://www.w3.org/2000/svg"
   xmlns:sodipodi="http://sodipodi.sourceforge.net/DTD/sodipodi-0.dtd"
   xmlns:inkscape="http://www.inkscape.org/namespaces/inkscape"
   width="25"
   height="25"
   version="1.1"
   viewBox="0 0 6.6146 6.6146"
   id="svg10"
   sodipodi:docname="include_empty_true.svg"
   inkscape:version="0.92.2 2405546, 2018-03-11">
  <metadata
     id="metadata16">
    <rdf:RDF>
      <cc:Work
         rdf:about="">
        <dc:format>image/svg+xml</dc:format>
        <dc:type
           rdf:resource="http://purl.org/dc/dcmitype/StillImage" />
      </cc:Work>
    </rdf:RDF>
  </metadata>
  <defs
     id="defs14" />
  <sodipodi:namedview
     pagecolor="#ffffff"
     bordercolor="#666666"
     borderopacity="1"
     objecttolerance="10"
     gridtolerance="10"
     guidetolerance="10"
     inkscape:pageopacity="0"
     inkscape:pageshadow="2"
     inkscape:window-width="1920"
     inkscape:window-height="1171"
     id="namedview12"
     showgrid="true"
     inkscape:object-nodes="false"
     inkscape:snap-bbox="true"
     inkscape:bbox-nodes="true"
     inkscape:snap-nodes="false"
     inkscape:zoom="26.700352"
     inkscape:cx="17.686014"
     inkscape:cy="10.919537"
     inkscape:window-x="0"
     inkscape:window-y="29"
     inkscape:window-maximized="0"
     inkscape:current-layer="svg10">
    <inkscape:grid
       type="xygrid"
       id="grid823" />
  </sodipodi:namedview>
  <g
     id="g828"
     transform="matrix(1,0,0,0.81776449,0,0.60273759)"
     style="stroke-width:1.10582364">
    <path
       id="path2"
       d="M 2.9214,0.26458 V 0.52916 H 3.07574 V 1.32291 A 0.92604,0.52917 0 0 0 2.1497,1.85208 V 2.38125 H 4.4648 V 1.85208 A 0.92604,0.52917 0 0 0 3.53876,1.32291 V 0.52916 H 3.6931 V 0.26458 Z"
       inkscape:connector-curvature="0"
       style="fill:#aeffff;stroke-width:1.15979886" />
    <path
       id="path4"
       d="m 2.1497,2.3812 v 3.4396 a 0.30868,0.52917 0 0 0 0.30868,0.52917 h 1.6977 A 0.30868,0.52917 0 0 0 4.46476,5.8208 V 2.3812 Z"
       inkscape:connector-curvature="0"
       style="fill:#aeffff;stroke-width:1.15979886" />
    <path
       id="path6"
       d="M 2.9214,0.26458 V 0.52916 H 3.07574 V 1.32291 A 0.92604,0.52917 0 0 0 2.1497,1.85208 v 3.9687 a 0.30868,0.52917 0 0 0 0.30868,0.52917 h 1.6977 A 0.30868,0.52917 0 0 0 4.46476,5.82078 V 1.85208 A 0.92604,0.52917 0 0 0 3.53872,1.32291 V 0.52916 H 3.69306 V 0.26458 Z"
       inkscape:connector-curvature="0"
       style="fill:none;stroke:#000000;stroke-width:0.05851687" />
  </g>
  <path
     d="m1.3479 4.1237 1.3038 1.1097 2.6077-3.8841-2.6956 3.1421-1.2159-0.36784"
     fill="#32c832"
     fill-rule="evenodd"
     stroke="#196419"
     stroke-width=".079375"
     id="path8" />
</svg>
